<svg width="517" height="178" viewBox="0 0 517 178" fill="none" xmlns="http://www.w3.org/2000/svg">
<path fill-rule="evenodd" clip-rule="evenodd" d="M51.5852 74.237H53.2575C52.6451 78.4026 52.3279 82.6643 52.3279 87V91C52.3279 139.049 91.2792 178 139.328 178H374.532C422.581 178 461.532 139.049 461.532 91V87C461.532 82.6643 461.215 78.4026 460.603 74.237H462.275C461.787 71.2755 461.532 68.2349 461.532 65.1351V55.5C461.532 24.859 486.363 0.0175081 517 0H374.532H352.69H143.379H139.328H0L0 0.0891319C29.1758 1.73311 52.3279 25.9128 52.3279 55.5V65.135C52.3279 68.2349 52.0738 71.2755 51.5852 74.237Z" fill="black"/>
</svg>
